<svg width="21" height="21" viewBox="0 0 21 21" fill="none" xmlns="http://www.w3.org/2000/svg">
<path d="M15.8539 3.57591C15.6086 3.57591 15.3688 3.64865 15.1649 3.78492C14.9609 3.9212 14.802 4.11489 14.7081 4.34151C14.6142 4.56812 14.5897 4.81749 14.6375 5.05806C14.6854 5.29864 14.8035 5.51962 14.9769 5.69306C15.1504 5.86651 15.3714 5.98463 15.6119 6.03248C15.8525 6.08033 16.1019 6.05577 16.3285 5.96191C16.5551 5.86804 16.7488 5.70908 16.8851 5.50513C17.0214 5.30118 17.0941 5.0614 17.0941 4.81611C17.0941 4.48719 16.9634 4.17174 16.7308 3.93916C16.4983 3.70657 16.1828 3.57591 15.8539 3.57591ZM20.608 6.07698C20.5879 5.21948 20.4273 4.37109 20.1326 3.56557C19.8698 2.87637 19.4608 2.25228 18.9337 1.73628C18.422 1.20653 17.7964 0.800111 17.1044 0.547755C16.301 0.244072 15.4517 0.0797965 14.593 0.0620099C13.4975 -5.77513e-08 13.1461 0 10.335 0C7.52388 0 7.17249 -5.77513e-08 6.07698 0.0620099C5.2183 0.0797965 4.36896 0.244072 3.56557 0.547755C2.87486 0.802666 2.24986 1.20874 1.73628 1.73628C1.20653 2.24805 0.800111 2.87358 0.547755 3.56557C0.244072 4.36896 0.0797965 5.2183 0.0620099 6.07698C-5.77513e-08 7.17249 0 7.52388 0 10.335C0 13.1461 -5.77513e-08 13.4975 0.0620099 14.593C0.0797965 15.4517 0.244072 16.301 0.547755 17.1044C0.800111 17.7964 1.20653 18.422 1.73628 18.9337C2.24986 19.4613 2.87486 19.8673 3.56557 20.1222C4.36896 20.4259 5.2183 20.5902 6.07698 20.608C7.17249 20.67 7.52388 20.67 10.335 20.67C13.1461 20.67 13.4975 20.67 14.593 20.608C15.4517 20.5902 16.301 20.4259 17.1044 20.1222C17.7964 19.8699 18.422 19.4635 18.9337 18.9337C19.4631 18.4196 19.8725 17.795 20.1326 17.1044C20.4273 16.2989 20.5879 15.4505 20.608 14.593C20.608 13.4975 20.67 13.1461 20.67 10.335C20.67 7.52388 20.67 7.17249 20.608 6.07698ZM18.7477 14.469C18.7402 15.125 18.6213 15.775 18.3963 16.3913C18.2313 16.8411 17.9662 17.2475 17.6212 17.5798C17.286 17.9214 16.8804 18.1859 16.4326 18.355C15.8164 18.58 15.1664 18.6988 14.5103 18.7064C13.4768 18.758 13.0944 18.7684 10.3763 18.7684C7.65823 18.7684 7.27584 18.7684 6.24234 18.7064C5.56115 18.7191 4.88287 18.6142 4.23735 18.3963C3.80926 18.2186 3.42229 17.9548 3.1005 17.6212C2.75747 17.2892 2.49574 16.8824 2.33571 16.4326C2.08339 15.8075 1.94344 15.1428 1.92231 14.469C1.92231 13.4355 1.8603 13.0531 1.8603 10.335C1.8603 7.61689 1.8603 7.2345 1.92231 6.201C1.92694 5.53032 2.04938 4.86566 2.28403 4.23735C2.46598 3.80112 2.74525 3.41226 3.1005 3.1005C3.41449 2.74515 3.80254 2.46293 4.23735 2.2737C4.86732 2.04637 5.53129 1.92756 6.201 1.92231C7.2345 1.92231 7.61689 1.8603 10.335 1.8603C13.0531 1.8603 13.4355 1.8603 14.469 1.92231C15.125 1.92983 15.775 2.04865 16.3913 2.2737C16.861 2.448 17.2825 2.73138 17.6212 3.1005C17.9599 3.41797 18.2245 3.8061 18.3963 4.23735C18.626 4.86668 18.7449 5.53106 18.7477 6.201C18.7994 7.2345 18.8097 7.61689 18.8097 10.335C18.8097 13.0531 18.7994 13.4355 18.7477 14.469ZM10.335 5.03314C9.28683 5.03519 8.26279 5.34787 7.39227 5.93169C6.52174 6.5155 5.8438 7.34425 5.4441 8.31322C5.0444 9.28218 4.94088 10.3479 5.14662 11.3757C5.35236 12.4034 5.85812 13.3472 6.60001 14.0876C7.3419 14.8281 8.28661 15.332 9.31479 15.5357C10.343 15.7395 11.4085 15.6339 12.3766 15.2323C13.3448 14.8307 14.1723 14.1511 14.7544 13.2795C15.3365 12.4078 15.6472 11.3832 15.6472 10.335C15.6486 9.6375 15.512 8.9466 15.2454 8.30206C14.9788 7.65752 14.5874 7.07204 14.0937 6.57931C13.6 6.08658 13.0138 5.69632 12.3687 5.43097C11.7237 5.16562 11.0325 5.03042 10.335 5.03314ZM10.335 13.7766C9.65432 13.7766 8.98893 13.5747 8.42297 13.1965C7.85701 12.8184 7.4159 12.2809 7.15542 11.652C6.89493 11.0232 6.82678 10.3312 6.95957 9.66359C7.09237 8.99599 7.42014 8.38276 7.90145 7.90145C8.38276 7.42014 8.99599 7.09237 9.66359 6.95957C10.3312 6.82678 11.0232 6.89493 11.652 7.15542C12.2809 7.4159 12.8184 7.85701 13.1965 8.42297C13.5747 8.98893 13.7766 9.65432 13.7766 10.335C13.7766 10.787 13.6875 11.2345 13.5146 11.652C13.3416 12.0696 13.0881 12.449 12.7685 12.7685C12.449 13.0881 12.0696 13.3416 11.652 13.5146C11.2345 13.6875 10.787 13.7766 10.335 13.7766Z" fill="#1C2E49"/>
</svg>
