<svg width="23" height="18" viewBox="0 0 23 18" fill="none" xmlns="http://www.w3.org/2000/svg">
<path d="M22.0909 2.15652C21.2607 2.51704 20.3827 2.75537 19.4842 2.86408C20.4321 2.29728 21.1424 1.4056 21.4834 0.354445C20.5927 0.885188 19.6176 1.25913 18.6005 1.46001C17.9208 0.722126 17.0155 0.230949 16.0267 0.0635168C15.038 -0.103916 14.0217 0.0618661 13.1372 0.534862C12.2528 1.00786 11.5502 1.76131 11.1396 2.67706C10.7291 3.59281 10.6338 4.61905 10.8687 5.59484C9.06769 5.50366 7.30595 5.03426 5.69797 4.21715C4.08999 3.40003 2.67173 2.25347 1.53532 0.851951C1.13673 1.54864 0.927287 2.33764 0.927818 3.14048C0.926405 3.88605 1.1092 4.62041 1.45994 5.27816C1.81067 5.93592 2.31846 6.49666 2.93809 6.91046C2.2179 6.89085 1.5131 6.69742 0.883636 6.34662V6.4019C0.889034 7.44654 1.25476 8.45726 1.91894 9.26307C2.58313 10.0689 3.50501 10.6204 4.52864 10.8242C4.1346 10.9442 3.72549 11.0075 3.31364 11.0121C3.02854 11.0088 2.74416 10.9829 2.46314 10.9347C2.75464 11.8333 3.31874 12.6187 4.07696 13.1814C4.83518 13.7442 5.7498 14.0564 6.69355 14.0745C5.09991 15.3297 3.13236 16.0147 1.10455 16.0203C0.735335 16.0216 0.366417 15.9994 0 15.954C2.07039 17.292 4.48314 18.0023 6.94759 17.9993C8.64825 18.017 10.3354 17.6953 11.9104 17.053C13.4855 16.4108 14.9169 15.4608 16.1211 14.2586C17.3252 13.0564 18.278 11.6261 18.9237 10.0513C19.5694 8.47641 19.8951 6.78855 19.8818 5.08628C19.8818 4.89833 19.8818 4.69933 19.8818 4.50033C20.7486 3.85336 21.4961 3.06024 22.0909 2.15652Z" fill="#1C2E49"/>
</svg>
