<svg width="21" height="21" viewBox="0 0 21 21" fill="none" xmlns="http://www.w3.org/2000/svg">
<path d="M8.45794 0.000156166C3.79704 0.000156166 0 3.79719 0 8.4581C0 13.119 3.79724 16.916 8.45794 16.916C10.4737 16.916 12.3254 16.2035 13.7809 15.0203L19.5045 20.7438C19.8461 21.0854 20.4023 21.0854 20.7439 20.7438C21.0855 20.4022 21.0855 19.8551 20.7439 19.5133L15.0204 13.7898C16.2059 12.3337 16.9161 10.4759 16.9161 8.45794C16.9161 3.79704 13.1189 0 8.4582 0L8.45794 0.000156166ZM8.45794 1.75008C12.173 1.75008 15.1658 4.74309 15.1658 8.45799C15.1658 12.1729 12.1728 15.1659 8.45794 15.1659C4.74304 15.1659 1.75003 12.1729 1.75003 8.45799C1.75003 4.74309 4.74304 1.75008 8.45794 1.75008Z" fill="white"/>
</svg>
