<svg width="26" height="19" viewBox="0 0 26 19" fill="none" xmlns="http://www.w3.org/2000/svg">
<path d="M11.124 9.44291C11.6042 9.81168 12.1928 10.0115 12.7981 10.0115C13.4034 10.0115 13.992 9.81169 14.4721 9.44291L25.0962 1.1647V1.1649C24.5843 0.434678 23.7486 0 22.857 0H2.7427C1.79639 0.00204079 0.918413 0.493062 0.421251 1.29839L11.124 9.44291Z" fill="#008FD5"/>
<path d="M15.5925 10.8922C14.7927 11.5065 13.8123 11.8393 12.8039 11.8393C11.7953 11.8393 10.8152 11.5065 10.0153 10.8922L0 3.27644V15.5435C0 16.2711 0.288977 16.9686 0.803265 17.4831C1.31776 17.9974 2.01529 18.2864 2.74286 18.2864H22.8571C23.5847 18.2864 24.2822 17.9974 24.7967 17.4831C25.311 16.9686 25.6 16.2711 25.6 15.5435V3.09567L15.5925 10.8922Z" fill="#008FD5"/>
</svg>
