<svg width="23" height="23" viewBox="0 0 23 23" fill="none" xmlns="http://www.w3.org/2000/svg">
<path d="M11.5 0C8.45004 0 5.52511 1.21159 3.36826 3.36826C1.21164 5.52507 0 8.45036 0 11.5C0 14.5496 1.21159 17.4749 3.36826 19.6317C5.52507 21.7884 8.45036 23 11.5 23C14.5496 23 17.4749 21.7884 19.6317 19.6317C21.7884 17.4749 23 14.5496 23 11.5C22.9967 8.45097 21.7842 5.52793 19.6281 3.37202C17.4722 1.21591 14.5488 0.00337957 11.5001 9.38268e-05L11.5 0ZM16.1879 16.1879C16.0338 16.3419 15.825 16.4285 15.6072 16.4285C15.3894 16.4285 15.1805 16.3419 15.0265 16.1879L10.9193 12.0807C10.8427 12.0043 10.782 11.9133 10.7409 11.813C10.7002 11.7137 10.6789 11.6075 10.6786 11.5V4.10712C10.6786 3.81357 10.8352 3.5424 11.0893 3.39572C11.3434 3.24903 11.6566 3.24903 11.9107 3.39572C12.1649 3.5424 12.3214 3.81358 12.3214 4.10712V11.1597L16.1879 15.0262V15.0263C16.3419 15.1804 16.4284 15.3892 16.4284 15.607C16.4284 15.8248 16.3419 16.0337 16.1879 16.1877L16.1879 16.1879Z" fill="#008FD5"/>
</svg>
