<svg width="15" height="20" viewBox="0 0 15 20" fill="none" xmlns="http://www.w3.org/2000/svg">
<path d="M7.33187 19.9998C7.13182 19.9062 6.96398 19.7551 6.84987 19.5658C4.99191 16.9358 3.11987 14.3158 1.27202 11.6779C0.568196 10.6655 0.142125 9.4864 0.0361251 8.25786C-0.275818 5.05779 1.45409 1.97965 4.38827 0.710006C7.23619 -0.523958 9.92612 -0.147958 12.3343 1.82608C13.0605 2.41633 13.6629 3.14429 14.1069 3.96797C14.551 4.79175 14.8282 5.69493 14.9224 6.62604C15.1616 8.49643 14.6718 10.3871 13.5543 11.906C11.7557 14.4394 9.95576 16.9775 8.15434 19.52C8.03715 19.7283 7.85928 19.8958 7.6443 20L7.33187 19.9998ZM9.98198 7.528C9.98449 6.86786 9.72542 6.23365 9.26155 5.76404C8.79755 5.29447 8.16641 5.02786 7.50637 5.0224C6.84623 5.01696 6.21091 5.27323 5.73934 5.73515C5.2678 6.19708 4.99841 6.82693 4.99016 7.48711C4.98179 8.14711 5.23542 8.78358 5.69523 9.25718C6.15505 9.73068 6.7838 10.0029 7.44384 10.0139C8.11041 10.022 8.75269 9.76431 9.22898 9.29779C9.70512 8.8314 9.97605 8.19454 9.98191 7.52797L9.98198 7.528Z" fill="#1C2E49"/>
</svg>
