<svg width="40" height="33" viewBox="0 0 40 33" fill="none" xmlns="http://www.w3.org/2000/svg">
<path d="M10.3494 13.6914C10.0734 13.701 9.85749 13.9325 9.86709 14.2085C9.87669 14.4845 10.1082 14.7004 10.3842 14.6908L10.3494 13.6914ZM16.8136 12.8721L16.9944 13.3382L16.9944 13.3382L16.8136 12.8721ZM21.5457 10.2339L21.9977 10.0202C21.9333 9.88414 21.8112 9.7843 21.665 9.74838C21.5189 9.71245 21.3644 9.74425 21.2443 9.83496L21.5457 10.2339ZM24.8595 13.5318L25.0697 13.0781L25.0697 13.0781L24.8595 13.5318ZM30.1727 14.2589C30.4339 14.1693 30.5731 13.8849 30.4835 13.6237C30.3939 13.3625 30.1095 13.2234 29.8483 13.3129L30.1727 14.2589ZM5.92052 10.7344C5.83246 10.9961 5.97324 11.2797 6.23497 11.3677C6.4967 11.4558 6.78025 11.315 6.86831 11.0533L5.92052 10.7344ZM33.5715 11.0533C33.6596 11.315 33.9432 11.4558 34.2049 11.3677C34.4666 11.2796 34.6074 10.9961 34.5193 10.7343L33.5715 11.0533ZM16.8555 30.1394C17.1249 30.2001 17.3925 30.031 17.4532 29.7617C17.514 29.4923 17.3449 29.2247 17.0755 29.1639L16.8555 30.1394ZM6.86833 19.968C6.7803 19.7063 6.49677 19.5655 6.23503 19.6535C5.97329 19.7415 5.83247 20.0251 5.9205 20.2868L6.86833 19.968ZM7.62761 10.8938H8.12761C8.12761 10.6177 7.90375 10.3938 7.62761 10.3938V10.8938ZM7.62761 20.1274V20.6274C7.90375 20.6274 8.12761 20.4036 8.12761 20.1274H7.62761ZM16.9656 29.6518L17.4398 29.8106L17.4431 29.8002L16.9656 29.6518ZM23.4739 29.6518L22.9963 29.8001L22.9998 29.8106L23.4739 29.6518ZM32.8121 20.1274H32.3121C32.3121 20.4036 32.536 20.6274 32.8121 20.6274V20.1274ZM32.8121 10.8938V10.3938C32.536 10.3938 32.3121 10.6177 32.3121 10.8938H32.8121ZM3.65089 12.213H4.15089C4.15089 11.9369 3.92708 11.713 3.65096 11.713L3.65089 12.213ZM3.65089 18.8089V19.3089C3.92704 19.3089 4.15089 19.085 4.15089 18.8089H3.65089ZM2.32545 12.2128L2.32552 11.7128H2.32545V12.2128ZM36.7892 18.8088H36.2892C36.2892 19.0849 36.513 19.3088 36.7892 19.3088V18.8088ZM36.7892 12.2129V11.7129C36.513 11.7129 36.2892 11.9368 36.2892 12.2129H36.7892ZM29.6617 15.5103C29.6617 20.6958 25.4368 24.9035 20.2199 24.9035V25.9035C25.9844 25.9035 30.6617 21.2527 30.6617 15.5103H29.6617ZM20.2199 24.9035C15.003 24.9035 10.7781 20.6958 10.7781 15.5103H9.77813C9.77813 21.2527 14.4554 25.9035 20.2199 25.9035V24.9035ZM10.7781 15.5103C10.7781 10.3245 15.0031 6.1165 20.2199 6.1165V5.1165C14.4553 5.1165 9.77813 9.76762 9.77813 15.5103H10.7781ZM20.2199 6.1165C25.4368 6.1165 29.6617 10.3242 29.6617 15.5103H30.6617C30.6617 9.76736 25.9845 5.1165 20.2199 5.1165V6.1165ZM10.3842 14.6908C11.9871 14.6351 14.3487 14.3644 16.9944 13.3382L16.6328 12.4059C14.119 13.3809 11.8742 13.6384 10.3494 13.6914L10.3842 14.6908ZM16.9944 13.3382C19.0981 12.5222 20.716 11.4873 21.847 10.6329L21.2443 9.83496C20.1692 10.6471 18.6318 11.6305 16.6328 12.4059L16.9944 13.3382ZM21.0936 10.4477C21.3519 10.9938 22.3397 12.9156 24.6494 13.9855L25.0697 13.0781C23.0787 12.1558 22.221 10.4926 21.9977 10.0202L21.0936 10.4477ZM24.6494 13.9855C27.267 15.1981 29.669 14.4316 30.1727 14.2589L29.8483 13.3129C29.4123 13.4625 27.3263 14.1235 25.0697 13.0781L24.6494 13.9855ZM16.406 16.8295C16.406 17.2796 16.0388 17.6485 15.5805 17.6485V18.6485C16.5865 18.6485 17.406 17.8365 17.406 16.8295H16.406ZM15.5805 17.6485C15.1223 17.6485 14.7551 17.2796 14.7551 16.8295H13.7551C13.7551 17.8365 14.5746 18.6485 15.5805 18.6485V17.6485ZM14.7551 16.8295C14.7551 16.3793 15.1223 16.0104 15.5805 16.0104V15.0104C14.5746 15.0104 13.7551 15.8225 13.7551 16.8295H14.7551ZM15.5805 16.0104C16.0388 16.0104 16.406 16.3793 16.406 16.8295H17.406C17.406 15.8225 16.5865 15.0104 15.5805 15.0104V16.0104ZM25.685 16.8295C25.685 17.2796 25.3178 17.6485 24.8595 17.6485V18.6485C25.8655 18.6485 26.685 17.8365 26.685 16.8295H25.685ZM24.8595 17.6485C24.4013 17.6485 24.0341 17.2796 24.0341 16.8295H23.0341C23.0341 17.8365 23.8536 18.6485 24.8595 18.6485V17.6485ZM24.0341 16.8295C24.0341 16.3793 24.4013 16.0104 24.8595 16.0104V15.0104C23.8536 15.0104 23.0341 15.8225 23.0341 16.8295H24.0341ZM24.8595 16.0104C25.3178 16.0104 25.685 16.3793 25.685 16.8295H26.685C26.685 15.8225 25.8655 15.0104 24.8595 15.0104V16.0104ZM6.86831 11.0533C8.73652 5.50064 14.0107 1.5 20.2199 1.5V0.5C13.5715 0.5 7.92251 4.78413 5.92052 10.7344L6.86831 11.0533ZM20.2199 1.5C26.4291 1.5 31.7027 5.50037 33.5715 11.0533L34.5193 10.7343C32.5167 4.7839 26.8684 0.5 20.2199 0.5V1.5ZM17.0755 29.1639C12.2758 28.0814 8.41006 24.5522 6.86833 19.968L5.9205 20.2868C7.57303 25.2004 11.7136 28.9797 16.8555 30.1394L17.0755 29.1639ZM7.12761 10.8938V20.1274H8.12761V10.8938H7.12761ZM7.62761 19.6274H4.89084V20.6274H7.62761V19.6274ZM4.89084 19.6274C4.47998 19.6274 4.15083 19.2964 4.15083 18.8934H3.15083C3.15083 19.8532 3.93224 20.6274 4.89084 20.6274V19.6274ZM4.15083 18.8934V12.1278H3.15083V18.8934H4.15083ZM4.15083 12.1278C4.15083 11.7248 4.47999 11.3938 4.89084 11.3938V10.3938C3.93229 10.3938 3.15083 11.168 3.15083 12.1278H4.15083ZM4.89084 11.3938H7.62761V10.3938H4.89084V11.3938ZM23.0338 30.0212C23.0338 30.3229 22.8267 30.6816 22.3067 30.9918C21.7969 31.296 21.0602 31.5 20.22 31.5V32.5C21.209 32.5 22.1293 32.2621 22.819 31.8506C23.4986 31.4452 24.0338 30.8145 24.0338 30.0212H23.0338ZM20.22 31.5C19.3798 31.5 18.6431 31.296 18.1332 30.9918C17.6132 30.6816 17.4061 30.3229 17.4061 30.0212H16.4061C16.4061 30.8145 16.9413 31.4452 17.6209 31.8506C18.3107 32.2621 19.2309 32.5 20.22 32.5V31.5ZM17.4061 30.0212C17.4061 29.948 17.4177 29.8764 17.4397 29.8106L16.4915 29.493C16.434 29.6648 16.4061 29.8438 16.4061 30.0212H17.4061ZM17.4431 29.8002C17.5302 29.52 17.8088 29.2044 18.3168 28.9505C18.8147 28.7017 19.4789 28.5424 20.22 28.5424V27.5424C19.3438 27.5424 18.5234 27.7294 17.8698 28.056C17.2261 28.3776 16.6861 28.8667 16.4882 29.5033L17.4431 29.8002ZM20.22 28.5424C20.961 28.5424 21.6252 28.7017 22.1231 28.9505C22.631 29.2043 22.9094 29.5199 22.9964 29.8001L23.9514 29.5035C23.7537 28.8668 23.2137 28.3776 22.5701 28.056C21.9165 27.7294 21.0961 27.5424 20.22 27.5424V28.5424ZM22.9998 29.8106C23.0222 29.8774 23.0338 29.949 23.0338 30.0212H24.0338C24.0338 29.8428 24.0052 29.6638 23.948 29.493L22.9998 29.8106ZM36.2889 12.1278V18.8934H37.2889V12.1278H36.2889ZM36.2889 18.8934C36.2889 19.2964 35.9598 19.6274 35.5489 19.6274V20.6274C36.5075 20.6274 37.2889 19.8533 37.2889 18.8934H36.2889ZM35.5489 19.6274H32.8121V20.6274H35.5489V19.6274ZM33.3121 20.1274V10.8938H32.3121V20.1274H33.3121ZM32.8121 11.3938H35.5489V10.3938H32.8121V11.3938ZM35.5489 11.3938C35.9599 11.3938 36.2889 11.7246 36.2889 12.1278H37.2889C37.2889 11.1676 36.5074 10.3938 35.5489 10.3938V11.3938ZM3.15089 12.213V18.8089H4.15089V12.213H3.15089ZM3.65089 18.3089H2.32545V19.3089H3.65089V18.3089ZM2.32545 18.3089C1.86739 18.3089 1.5 17.9398 1.5 17.4894H0.5C0.5 18.4963 1.3193 19.3089 2.32545 19.3089V18.3089ZM1.5 17.4894V13.5319H0.5V17.4894H1.5ZM1.5 13.5319C1.5 13.0817 1.86722 12.7128 2.32545 12.7128V11.7128C1.31951 11.7128 0.5 12.5249 0.5 13.5319H1.5ZM2.32538 12.7128L3.65082 12.713L3.65096 11.713L2.32552 11.7128L2.32538 12.7128ZM38.9401 17.4898C38.9401 17.9399 38.5728 18.3088 38.1146 18.3088V19.3088C39.1205 19.3088 39.9401 18.4967 39.9401 17.4898H38.9401ZM38.1146 18.3088H36.7892V19.3088H38.1146V18.3088ZM37.2892 18.8088V12.2129H36.2892V18.8088H37.2892ZM36.7892 12.7129H38.1146V11.7129H36.7892V12.7129ZM38.1146 12.7129C38.5728 12.7129 38.9401 13.0818 38.9401 13.532H39.9401C39.9401 12.525 39.1206 11.7129 38.1146 11.7129V12.7129ZM38.9401 13.532V17.4898H39.9401V13.532H38.9401Z" fill="#008FD5"/>
</svg>
